<?xml version="1.0" encoding="utf-8"?>
<!-- Generator: Adobe Illustrator 26.5.0, SVG Export Plug-In . SVG Version: 6.00 Build 0)  -->
<svg version="1.1" id="Layer_1" xmlns="http://www.w3.org/2000/svg" xmlns:xlink="http://www.w3.org/1999/xlink" x="0px" y="0px"
	 viewBox="0 0 24 24" style="enable-background:new 0 0 24 24;" xml:space="preserve">
<style type="text/css">
	.st0{fill-rule:evenodd;clip-rule:evenodd;fill:#565656;stroke:#565656;stroke-width:0.5;stroke-miterlimit:10;}
</style>
<path class="st0" d="M12,2.4c-5.5,0-10.5,3.7-10.5,8.7c0,1.8,0.6,3.5,1.8,4.9l-1.7,5.5L7.6,19c1.5,0.4,2.9,0.6,4.3,0.6
	c6.3,0,10.6-3.9,10.6-8.4C22.5,6.1,17.5,2.4,12,2.4z M12,3.3c5.3,0,9.6,3.5,9.6,7.8c0,4.3-4.2,7.5-9.7,7.5c-1.6,0-3-0.3-4.3-0.6
	L3,20l1.3-4.2c-1.1-1.4-1.9-2.7-1.9-4.7C2.4,6.8,6.7,3.3,12,3.3z M7.6,9.8c0.7,0,1.3,0.6,1.3,1.3s-0.6,1.3-1.3,1.3s-1.3-0.6-1.3-1.3
	S6.9,9.8,7.6,9.8z M12,9.8c0.7,0,1.3,0.6,1.3,1.3s-0.6,1.3-1.3,1.3s-1.3-0.6-1.3-1.3S11.3,9.8,12,9.8z M16.4,9.8
	c0.7,0,1.3,0.6,1.3,1.3s-0.6,1.3-1.3,1.3s-1.3-0.6-1.3-1.3S15.6,9.8,16.4,9.8z"/>
</svg>
